<?xml version="1.0" standalone="no"?>
<!DOCTYPE svg PUBLIC "-//W3C//DTD SVG 20010904//EN"
 "http://www.w3.org/TR/2001/REC-SVG-20010904/DTD/svg10.dtd">
<svg version="1.0" xmlns="http://www.w3.org/2000/svg"
 width="307.000000pt" height="307.000000pt" viewBox="0 0 307.000000 307.000000"
 preserveAspectRatio="xMidYMid meet">
<metadata>
Created by potrace 1.14, written by Peter Selinger 2001-2017
</metadata>
<g transform="translate(0.000000,307.000000) scale(0.100000,-0.100000)"
fill="#000000" stroke="none">
<path d="M2 2393 l3 -676 358 -1 c310 -1 360 1 366 14 8 18 7 201 -1 215 -4 6
-92 10 -226 9 l-220 0 2 49 c1 26 -2 51 -6 53 -5 3 -6 10 -2 15 5 9 9 438 4
464 -1 6 -1 15 0 20 6 26 4 217 -3 222 -4 2 -4 12 1 21 9 20 8 209 -1 218 -3
4 -2 14 3 24 5 10 6 20 3 24 -3 3 -69 6 -145 6 l-138 0 2 -677z"/>
<path d="M949 3058 c-5 -63 -2 -1322 2 -1330 8 -12 244 -17 262 -6 9 5 12 182
12 678 l1 670 -138 0 c-103 0 -138 -3 -139 -12z"/>
<path d="M1431 2395 c0 -631 1 -675 17 -676 24 -1 179 -1 227 0 l40 1 -1 290
c-1 208 2 290 10 291 6 0 85 1 176 2 l165 2 0 115 0 115 -177 -1 -178 0 0 153
0 153 229 0 229 0 -1 115 -1 115 -367 0 -368 0 0 -675z"/>
<path d="M2334 2395 c0 -371 2 -675 5 -676 31 -4 715 -3 722 2 5 3 8 54 6 114
l-2 109 -230 1 -230 0 -2 178 c-1 97 1 177 5 178 4 0 83 2 177 2 l169 2 1 95
c1 151 21 135 -178 135 l-172 0 -2 155 -3 155 235 0 235 0 0 112 0 113 -368 0
-368 0 0 -675z"/>
<path d="M0 678 l0 -678 135 0 c101 0 135 3 136 13 1 6 2 106 3 222 l1 210
145 6 c204 8 278 34 375 134 90 91 124 191 120 346 -3 108 -21 169 -72 243
-58 86 -129 132 -246 163 -49 13 -117 16 -329 17 l-268 2 0 -678z m552 436
c47 -24 79 -59 93 -104 13 -41 22 -140 13 -140 -5 0 -7 -4 -3 -9 9 -16 -25
-104 -53 -133 -48 -52 -92 -66 -211 -67 l-109 -2 2 97 c0 53 -2 98 -7 101 -4
2 -3 12 1 21 4 9 7 67 6 127 -2 61 -1 116 2 123 3 10 30 13 111 11 90 -2 116
-6 155 -25z"/>
<path d="M1315 1349 c-2 -3 -34 -104 -70 -225 -36 -120 -71 -235 -77 -254 -14
-44 -19 -64 -19 -67 0 -2 -7 -22 -15 -45 -9 -24 -17 -52 -20 -62 -2 -11 -11
-41 -19 -67 -9 -26 -17 -57 -18 -68 -1 -12 -5 -21 -9 -21 -4 0 -8 -7 -8 -15 0
-8 -7 -34 -15 -58 -8 -24 -16 -52 -18 -63 -2 -10 -7 -26 -10 -34 -11 -28 -107
-352 -107 -361 0 -5 63 -9 140 -9 77 0 139 3 139 8 -1 4 -1 9 0 12 1 3 19 63
40 135 l38 130 212 1 c139 0 214 -3 220 -10 4 -6 18 -47 30 -91 12 -44 29
-104 37 -133 l15 -52 146 0 c112 0 144 3 141 13 -3 6 -20 62 -37 122 -18 61
-33 115 -35 120 -2 6 -4 13 -5 17 -1 4 -8 26 -16 48 -8 22 -14 41 -14 43 0 1
-2 9 -4 17 -3 8 -18 58 -33 110 -15 52 -37 129 -50 170 -12 41 -46 154 -74
250 -28 96 -69 236 -92 310 l-40 135 -175 0 c-96 0 -176 -3 -178 -6z m181
-292 c1 -7 14 -57 29 -112 14 -55 28 -108 30 -118 2 -9 6 -21 9 -25 3 -5 7
-19 9 -33 3 -13 15 -62 27 -109 12 -47 24 -95 26 -107 2 -12 9 -34 14 -48 11
-29 27 -27 -178 -27 -73 0 -135 2 -137 4 -3 2 11 63 31 134 20 71 37 136 39
144 4 16 34 127 61 225 14 52 20 74 23 94 2 8 15 -9 17 -22z"/>
<path d="M1955 1343 c-2 -7 0 -13 5 -13 6 0 10 -4 10 -9 0 -5 8 -26 17 -47 9
-22 16 -42 15 -46 -1 -5 3 -8 10 -8 6 0 9 -2 6 -6 -3 -3 7 -32 23 -65 16 -32
29 -62 29 -65 0 -3 13 -33 29 -67 40 -88 61 -134 169 -377 l95 -215 1 -210 1
-210 135 -3 136 -3 -1 213 c0 144 4 221 12 238 58 122 213 477 213 487 0 7 4
13 8 13 4 0 14 17 21 38 8 20 27 66 43 102 17 36 39 85 50 110 11 25 31 67 44
94 13 27 22 52 19 55 -4 7 -282 8 -289 0 -3 -3 -78 -186 -216 -527 -19 -45
-37 -79 -40 -75 -7 9 -52 115 -65 153 -1 3 -5 14 -10 25 -4 11 -19 47 -32 80
-30 77 -38 94 -51 125 -6 14 -25 59 -41 100 -16 41 -34 86 -41 100 l-11 25
-144 0 c-107 0 -146 -3 -150 -12z"/>
</g>
</svg>
